<svg xmlns="http://www.w3.org/2000/svg" viewBox="0 0 800 1350" width="100%" height="1350" style="background: transparent;">
  <defs>
    <!-- Background Gradient -->
    <linearGradient id="sakura-bg" x1="0%" y1="0%" x2="100%" y2="100%">
      <stop offset="0%" stop-color="#140b10" />
      <stop offset="50%" stop-color="#1c0f16" />
      <stop offset="100%" stop-color="#2d1520" />
    </linearGradient>
    <!-- Glowing Borders -->
    <linearGradient id="sakura-border" x1="0%" y1="0%" x2="100%" y2="0%">
      <stop offset="0%" stop-color="#ffb7c5" />
      <stop offset="30%" stop-color="#ff8fa3" />
      <stop offset="70%" stop-color="#ffccd5" />
      <stop offset="100%" stop-color="#ffe3e8" />
    </linearGradient>
    
    <!-- Gauges Gradients -->
    <linearGradient id="hp-sakura" x1="0%" y1="0%" x2="100%" y2="0%">
      <stop offset="0%" stop-color="#ffb7c5" />
      <stop offset="100%" stop-color="#ff4d6d" />
    </linearGradient>
    <linearGradient id="mp-sakura" x1="0%" y1="0%" x2="100%" y2="0%">
      <stop offset="0%" stop-color="#fae0e4" />
      <stop offset="100%" stop-color="#ff8fa3" />
    </linearGradient>
    <linearGradient id="xp-sakura" x1="0%" y1="0%" x2="100%" y2="0%">
      <stop offset="0%" stop-color="#ffe259" />
      <stop offset="100%" stop-color="#ffa751" />
    </linearGradient>

    <!-- Rarity Gradients -->
    <linearGradient id="rarity-legendary" x1="0%" y1="0%" x2="0%" y2="100%">
      <stop offset="0%" stop-color="#ffe259" />
      <stop offset="100%" stop-color="#ffa751" />
    </linearGradient>
    <linearGradient id="rarity-epic" x1="0%" y1="0%" x2="0%" y2="100%">
      <stop offset="0%" stop-color="#ff8fa3" />
      <stop offset="100%" stop-color="#ffccd5" />
    </linearGradient>
    <linearGradient id="rarity-rare" x1="0%" y1="0%" x2="0%" y2="100%">
      <stop offset="0%" stop-color="#d8bbff" />
      <stop offset="100%" stop-color="#b5179e" />
    </linearGradient>
    <linearGradient id="rarity-common" x1="0%" y1="0%" x2="0%" y2="100%">
      <stop offset="0%" stop-color="#fae0e4" />
      <stop offset="100%" stop-color="#ffccd5" />
    </linearGradient>

    <!-- Sakura Shapes -->
    <g id="petal">
      <path d="M 0 0 C -3 -6, -6 -10, 0 -15 C 6 -10, 3 -6, 0 0" fill="#ffb7c5" opacity="0.8" />
    </g>
    <g id="blossom">
      <use href="#petal" transform="rotate(0)" />
      <use href="#petal" transform="rotate(72)" />
      <use href="#petal" transform="rotate(144)" />
      <use href="#petal" transform="rotate(216)" />
      <use href="#petal" transform="rotate(288)" />
      <circle cx="0" cy="0" r="2.5" fill="#fff" opacity="0.9" />
    </g>

    <!-- Filters -->
    <filter id="sakura-glow" x="-20%" y="-20%" width="140%" height="140%">
      <feGaussianBlur stdDeviation="6" result="blur" />
      <feMerge>
        <feMergeNode in="blur" />
        <feMergeNode in="SourceGraphic" />
      </feMerge>
    </filter>
    
    <clipPath id="avatar-clip">
      <rect x="0" y="0" width="120" height="120" rx="15" />
    </clipPath>
  </defs>

  <style>
    .header-title { font-family: 'Georgia', serif; font-style: italic; font-weight: bold; fill: #ffb7c5; letter-spacing: 3px; font-size: 20px; text-shadow: 0 0 8px rgba(255,183,197,0.5); }
    .section-title { font-family: 'Georgia', serif; font-style: italic; font-weight: bold; fill: #ffb7c5; letter-spacing: 2px; font-size: 15px; }
    
    .dialog-speaker { font-family: 'Georgia', serif; font-size: 15px; font-weight: bold; fill: #ffffff; }
    .dialog-role { font-family: monospace; font-size: 10px; fill: #ff8fa3; }
    .dialog-text { font-family: 'Georgia', serif; font-size: 13.5px; fill: #ffd3e2; font-style: italic; }
    
    .label { font-family: 'Segoe UI', sans-serif; font-size: 10px; fill: #d4a3b8; font-weight: 700; text-transform: uppercase; letter-spacing: 1px; }
    .value { font-family: 'Segoe UI', sans-serif; font-size: 11px; fill: #ffffff; font-weight: bold; }
    
    .stat-label { font-family: 'Segoe UI', sans-serif; font-size: 12px; fill: #ffd3e2; font-weight: 600; }
    .stat-val { font-family: 'Courier New', monospace; font-size: 12px; fill: #ffe259; font-weight: bold; }
    
    .slot-bg { fill: #24141e; stroke: #3a1d2e; stroke-width: 1.5; }
    .item-title { font-family: 'Segoe UI', sans-serif; font-size: 9px; fill: #ffffff; font-weight: bold; text-anchor: middle; }
    .item-rarity { font-family: 'Segoe UI', sans-serif; font-size: 7px; font-weight: 800; text-anchor: middle; }
    .item-stats { font-family: 'Courier New', monospace; font-size: 8px; fill: #d4a3b8; text-anchor: middle; }
    
    .quest-card { fill: #20111a; stroke: #3e1f31; stroke-width: 1.5; }
    .quest-title { font-family: 'Georgia', serif; font-size: 11px; font-weight: bold; fill: #ffffff; }
    .quest-desc { font-family: 'Segoe UI', sans-serif; font-size: 10px; fill: #ffd3e2; }
    .quest-reward { font-family: monospace; font-size: 9px; fill: #ffe259; font-weight: bold; }
    .quest-status { font-family: monospace; font-size: 9px; font-weight: bold; }
    
    .btn-bg { fill: #301625; stroke: #ff8fa3; stroke-width: 1.5; }
    .btn-text { font-family: 'Segoe UI', sans-serif; font-size: 11px; fill: #ffccd5; font-weight: bold; text-anchor: middle; }

    @keyframes drift {
      0% { transform: translate(0, 0) rotate(0deg); opacity: 0.1; }
      50% { opacity: 0.5; }
      100% { transform: translate(100px, 80px) rotate(360deg); opacity: 0; }
    }
    .drifting-petal { animation: drift 8s infinite linear; }
  </style>

  <!-- Card Main Frame -->
  <rect x="10" y="10" width="780" height="1330" rx="20" fill="url(#sakura-bg)" stroke="url(#sakura-border)" stroke-width="3.5" filter="url(#sakura-glow)" />

  <!-- Falling Sakura Petals Background Grid -->
  <use href="#petal" x="120" y="80" class="drifting-petal" style="animation-delay: 0s; animation-duration: 9s;" />
  <use href="#petal" x="380" y="150" class="drifting-petal" style="animation-delay: 2s; animation-duration: 11s;" />
  <use href="#petal" x="650" y="240" class="drifting-petal" style="animation-delay: 4s; animation-duration: 8s;" />
  <use href="#petal" x="250" y="450" class="drifting-petal" style="animation-delay: 1s; animation-duration: 10s;" />
  <use href="#petal" x="500" y="650" class="drifting-petal" style="animation-delay: 5s; animation-duration: 12s;" />
  <use href="#petal" x="180" y="850" class="drifting-petal" style="animation-delay: 3s; animation-duration: 9s;" />
  <use href="#petal" x="600" y="1050" class="drifting-petal" style="animation-delay: 6s; animation-duration: 11s;" />

  <!-- Corner Cherry Blossoms -->
  <use href="#blossom" x="30" y="30" transform="scale(1.4)" />
  <use href="#blossom" x="770" y="30" transform="scale(1.4)" />
  <use href="#blossom" x="30" y="1320" transform="scale(1.4)" />
  <use href="#blossom" x="770" y="1320" transform="scale(1.4)" />

  <!-- ==================== HEADER SECTION ==================== -->
  <g transform="translate(40, 50)">
    <text x="360" y="25" text-anchor="middle" class="header-title">🌸 SAKURA CODE GARDEN 🌸</text>
    <path d="M 0 35 L 720 35" stroke="#3e1f31" stroke-width="1.5" />
  </g>

  <!-- ==================== DIALOGUE / VN SCREEN ==================== -->
  <g transform="translate(40, 110)">
    <!-- Dialogue Box Frame -->
    <rect x="0" y="0" width="720" height="160" rx="15" fill="#1c0f16" stroke="#ff8fa3" stroke-width="2" />
    
    <!-- Avatar Box -->
    <g transform="translate(20, 20)">
      <rect x="0" y="0" width="120" height="120" rx="15" fill="#2d1520" stroke="#ff8fa3" stroke-width="2" />
      <image href="avatar.png" x="0" y="0" width="120" height="120" clip-path="url(#avatar-clip)" />
    </g>
    
    <!-- Dialogue Text -->
    <g transform="translate(160, 25)">
      <text x="0" y="10" class="dialog-speaker">Sakura Guide</text>
      <text x="0" y="24" class="dialog-role">[Companion / AI Interface]</text>
      
      <!-- Dialogue Bubble text wraps -->
      <text x="0" y="50" class="dialog-text">"Welcome, traveler! You have stepped into the pocket universe of Saumil Prajapati."</text>
      <text x="0" y="68" class="dialog-text">"He is a developer, tech innovator, and alchemist who builds elegant startups."</text>
      <text x="0" y="86" class="dialog-text">"Every leaf, bloom, and item in this garden represents his creations."</text>
      <text x="0" y="104" class="dialog-text">"Take a look around the HUD to inspect his attributes and quests!"</text>
    </g>
  </g>

  <!-- ==================== STATUS SCREEN ==================== -->
  <!-- Section Title -->
  <g transform="translate(40, 305)">
    <text x="0" y="0" class="section-title">📊 CHARACTER STATUS SCREEN</text>
    <path d="M 0 8 L 720 8" stroke="#3e1f31" stroke-width="1.5" />
  </g>

  <g transform="translate(40, 330)">
    <!-- LV Badge -->
    <rect x="0" y="10" width="70" height="70" rx="15" fill="#301924" stroke="#ff8fa3" stroke-width="2" />
    <text x="35" y="32" text-anchor="middle" font-family="Segoe UI" font-size="10" font-weight="900" fill="#ff8fa3">LEVEL</text>
    <text x="35" y="62" text-anchor="middle" font-family="Georgia" font-size="28" font-weight="900" fill="#ffffff">21</text>

    <!-- Name / Class -->
    <text x="90" y="32" font-family="Georgia" font-size="22" font-weight="900" fill="#ffffff" letter-spacing="1">DAS-BABA</text>
    <text x="90" y="52" font-family="Segoe UI" font-size="11" font-weight="800" fill="#ffb7c5" letter-spacing="2.5">SAKURA ARCHITECT // CODE ALCHEMIST</text>
    <text x="90" y="68" font-family="monospace" font-size="10" fill="#ffb7c5" opacity="0.8">ONLINE STATUS: ACTIVE</text>

    <!-- RPG Gauges -->
    <g transform="translate(0, 100)">
      <!-- HP -->
      <text x="0" y="12" class="label">HP</text>
      <rect x="35" y="2" width="280" height="12" rx="4" fill="#24141e" stroke="#3e1f31" stroke-width="1" />
      <rect x="35" y="2" width="280" height="12" rx="4" fill="url(#hp-sakura)" />
      <text x="325" y="12" class="value">999/999</text>

      <!-- MP -->
      <text x="0" y="37" class="label">MP</text>
      <rect x="35" y="27" width="280" height="12" rx="4" fill="#24141e" stroke="#3e1f31" stroke-width="1" />
      <rect x="35" y="27" width="280" height="12" rx="4" fill="url(#mp-sakura)" />
      <text x="325" y="37" class="value">750/750</text>

      <!-- XP -->
      <text x="0" y="62" class="label">XP</text>
      <rect x="35" y="52" width="280" height="12" rx="4" fill="#24141e" stroke="#3e1f31" stroke-width="1" />
      <rect x="35" y="52" width="162" height="12" rx="4" fill="url(#xp-sakura)" />
      <text x="325" y="62" class="value">579/1000</text>
    </g>

    <!-- Attributes -->
    <g transform="translate(420, 10)">
      <!-- STR -->
      <text x="0" y="12" class="stat-label">STR (Frontend)</text>
      <text x="135" y="12" class="stat-val">85</text>
      <g transform="translate(170, 5)">
        <circle cx="5" cy="4" r="4" fill="#ff4d6d" /><circle cx="17" cy="4" r="4" fill="#ff4d6d" /><circle cx="29" cy="4" r="4" fill="#ff4d6d" /><circle cx="41" cy="4" r="4" fill="#ff4d6d" /><circle cx="53" cy="4" r="4" fill="#ff4d6d" /><circle cx="65" cy="4" r="4" fill="#ff4d6d" /><circle cx="77" cy="4" r="4" fill="#ff4d6d" /><circle cx="89" cy="4" r="4" fill="#ff4d6d" /><circle cx="101" cy="4" r="4" fill="#3e1f31" /><circle cx="113" cy="4" r="4" fill="#3e1f31" />
      </g>
      <!-- AGI -->
      <text x="0" y="37" class="stat-label">AGI (UI/UX)</text>
      <text x="135" y="37" class="stat-val">90</text>
      <g transform="translate(170, 30)">
        <circle cx="5" cy="4" r="4" fill="#ff8fa3" /><circle cx="17" cy="4" r="4" fill="#ff8fa3" /><circle cx="29" cy="4" r="4" fill="#ff8fa3" /><circle cx="41" cy="4" r="4" fill="#ff8fa3" /><circle cx="53" cy="4" r="4" fill="#ff8fa3" /><circle cx="65" cy="4" r="4" fill="#ff8fa3" /><circle cx="77" cy="4" r="4" fill="#ff8fa3" /><circle cx="89" cy="4" r="4" fill="#ff8fa3" /><circle cx="101" cy="4" r="4" fill="#ff8fa3" /><circle cx="113" cy="4" r="4" fill="#3e1f31" />
      </g>
      <!-- INT -->
      <text x="0" y="62" class="stat-label">INT (AI/Logic)</text>
      <text x="135" y="62" class="stat-val">88</text>
      <g transform="translate(170, 55)">
        <circle cx="5" cy="4" r="4" fill="#ffe259" /><circle cx="17" cy="4" r="4" fill="#ffe259" /><circle cx="29" cy="4" r="4" fill="#ffe259" /><circle cx="41" cy="4" r="4" fill="#ffe259" /><circle cx="53" cy="4" r="4" fill="#ffe259" /><circle cx="65" cy="4" r="4" fill="#ffe259" /><circle cx="77" cy="4" r="4" fill="#ffe259" /><circle cx="89" cy="4" r="4" fill="#ffe259" /><circle cx="101" cy="4" r="4" fill="#3e1f31" /><circle cx="113" cy="4" r="4" fill="#3e1f31" />
      </g>
      <!-- DEF -->
      <text x="0" y="87" class="stat-label">DEF (Testing)</text>
      <text x="135" y="87" class="stat-val">75</text>
      <g transform="translate(170, 80)">
        <circle cx="5" cy="4" r="4" fill="#ffccd5" /><circle cx="17" cy="4" r="4" fill="#ffccd5" /><circle cx="29" cy="4" r="4" fill="#ffccd5" /><circle cx="41" cy="4" r="4" fill="#ffccd5" /><circle cx="53" cy="4" r="4" fill="#ffccd5" /><circle cx="65" cy="4" r="4" fill="#ffccd5" /><circle cx="77" cy="4" r="4" fill="#ffccd5" /><circle cx="89" cy="4" r="4" fill="#3e1f31" /><circle cx="101" cy="4" r="4" fill="#3e1f31" /><circle cx="113" cy="4" r="4" fill="#3e1f31" />
      </g>
      <!-- LUK -->
      <text x="0" y="112" class="stat-label">LUK (Startup)</text>
      <text x="135" y="112" class="stat-val">95</text>
      <g transform="translate(170, 105)">
        <circle cx="5" cy="4" r="4" fill="#ffa751" /><circle cx="17" cy="4" r="4" fill="#ffa751" /><circle cx="29" cy="4" r="4" fill="#ffa751" /><circle cx="41" cy="4" r="4" fill="#ffa751" /><circle cx="53" cy="4" r="4" fill="#ffa751" /><circle cx="65" cy="4" r="4" fill="#ffa751" /><circle cx="77" cy="4" r="4" fill="#ffa751" /><circle cx="89" cy="4" r="4" fill="#ffa751" /><circle cx="101" cy="4" r="4" fill="#ffa751" /><circle cx="113" cy="4" r="4" fill="#3e1f31" />
      </g>
    </g>
  </g>

  <!-- ==================== INVENTORY SECTION ==================== -->
  <g transform="translate(40, 560)">
    <text x="0" y="0" class="section-title">🎒 SAKURA INVENTORY (EQUIPPED GRACE)</text>
    <path d="M 0 8 L 720 8" stroke="#3e1f31" stroke-width="1.5" />
  </g>

  <g transform="translate(40, 585)">
    <!-- Row 1 -->
    <!-- Col 1 -->
    <g transform="translate(0, 0)">
      <rect x="0" y="0" width="165" height="75" rx="8" class="slot-bg" />
      <rect x="2" y="2" width="161" height="71" rx="6" fill="none" stroke="url(#rarity-legendary)" stroke-width="1.5" />
      <use href="#blossom" x="20" y="30" transform="scale(0.85)" fill="#ffa751" />
      <text x="90" y="26" class="item-title">JAVASCRIPT</text>
      <text x="90" y="41" class="item-rarity" fill="#ffa751">LEGENDARY ARTIFACT</text>
      <text x="90" y="56" class="item-stats">LV. 85 / GRACE: 920</text>
    </g>
    <!-- Col 2 -->
    <g transform="translate(185, 0)">
      <rect x="0" y="0" width="165" height="75" rx="8" class="slot-bg" />
      <rect x="2" y="2" width="161" height="71" rx="6" fill="none" stroke="url(#rarity-epic)" stroke-width="1.5" />
      <use href="#blossom" x="20" y="30" transform="scale(0.85)" fill="#ffccd5" />
      <text x="90" y="26" class="item-title">HTML5 / CSS3</text>
      <text x="90" y="41" class="item-rarity" fill="#ff8fa3">EPIC BASTION</text>
      <text x="90" y="56" class="item-stats">LV. 90 / SHIELD: 880</text>
    </g>
    <!-- Col 3 -->
    <g transform="translate(370, 0)">
      <rect x="0" y="0" width="165" height="75" rx="8" class="slot-bg" />
      <rect x="2" y="2" width="161" height="71" rx="6" fill="none" stroke="url(#rarity-legendary)" stroke-width="1.5" />
      <use href="#blossom" x="20" y="30" transform="scale(0.85)" fill="#ffa751" />
      <text x="90" y="26" class="item-title">CANVA &amp; UI/UX</text>
      <text x="90" y="41" class="item-rarity" fill="#ffa751">LEGENDARY AMULET</text>
      <text x="90" y="56" class="item-stats">LV. 92 / FOCUS: +15%</text>
    </g>
    <!-- Col 4 -->
    <g transform="translate(555, 0)">
      <rect x="0" y="0" width="165" height="75" rx="8" class="slot-bg" />
      <rect x="2" y="2" width="161" height="71" rx="6" fill="none" stroke="url(#rarity-legendary)" stroke-width="1.5" />
      <use href="#blossom" x="20" y="30" transform="scale(0.85)" fill="#ffa751" />
      <text x="90" y="26" class="item-title">AI &amp; GEMINI</text>
      <text x="90" y="41" class="item-rarity" fill="#ffa751">LEGENDARY CROWN</text>
      <text x="90" y="56" class="item-stats">LV. 88 / INTEL: +30</text>
    </g>

    <!-- Row 2 -->
    <!-- Col 1 -->
    <g transform="translate(0, 95)">
      <rect x="0" y="0" width="165" height="75" rx="8" class="slot-bg" />
      <rect x="2" y="2" width="161" height="71" rx="6" fill="none" stroke="url(#rarity-rare)" stroke-width="1.5" />
      <use href="#blossom" x="20" y="30" transform="scale(0.85)" fill="#d8bbff" />
      <text x="90" y="26" class="item-title">NETLIFY &amp; GIT</text>
      <text x="90" y="41" class="item-rarity" fill="#d8bbff">RARE TALISMAN</text>
      <text x="90" y="56" class="item-stats">LV. 80 / SPEED: +50</text>
    </g>
    <!-- Col 2 -->
    <g transform="translate(185, 95)">
      <rect x="0" y="0" width="165" height="75" rx="8" class="slot-bg" />
      <rect x="2" y="2" width="161" height="71" rx="6" fill="none" stroke="url(#rarity-epic)" stroke-width="1.5" />
      <use href="#blossom" x="20" y="30" transform="scale(0.85)" fill="#ffccd5" />
      <text x="90" y="26" class="item-title">RESPONSIVE DESIGN</text>
      <text x="90" y="41" class="item-rarity" fill="#ff8fa3">EPIC KIMONO</text>
      <text x="90" y="56" class="item-stats">LV. 88 / EVADE: +25%</text>
    </g>
    <!-- Col 3 -->
    <g transform="translate(370, 95)">
      <rect x="0" y="0" width="165" height="75" rx="8" class="slot-bg" />
      <rect x="2" y="2" width="161" height="71" rx="6" fill="none" stroke="url(#rarity-rare)" stroke-width="1.5" />
      <use href="#blossom" x="20" y="30" transform="scale(0.85)" fill="#d8bbff" />
      <text x="90" y="26" class="item-title">PRODUCT STRATEGY</text>
      <text x="90" y="41" class="item-rarity" fill="#d8bbff">RARE SCROLL</text>
      <text x="90" y="56" class="item-stats">LV. 82 / MIND: +20</text>
    </g>
    <!-- Col 4 -->
    <g transform="translate(555, 95)">
      <rect x="0" y="0" width="165" height="75" rx="8" class="slot-bg" />
      <rect x="2" y="2" width="161" height="71" rx="6" fill="none" stroke="url(#rarity-common)" stroke-width="1.5" />
      <use href="#blossom" x="20" y="30" transform="scale(0.85)" fill="#fae0e4" />
      <text x="90" y="26" class="item-title">TESTING &amp; OPTIM</text>
      <text x="90" y="41" class="item-rarity" fill="#8b9bb4">COMMON POTION</text>
      <text x="90" y="56" class="item-stats">LV. 75 / RESTORE: 100</text>
    </g>
  </g>

  <!-- ==================== QUEST LOG SECTION ==================== -->
  <g transform="translate(40, 800)">
    <text x="0" y="0" class="section-title">📜 QUEST BOARD (MISSIONS LOG)</text>
    <path d="M 0 8 L 720 8" stroke="#3e1f31" stroke-width="1.5" />
  </g>

  <g transform="translate(40, 825)">
    <!-- Row 1 Quest Cards -->
    <!-- Quest 1 -->
    <g transform="translate(0, 0)">
      <rect x="0" y="0" width="345" height="105" rx="10" class="quest-card" />
      <path d="M 10 5 L 10 100" stroke="#ff8fa3" stroke-width="2" />
      <text x="25" y="22" class="quest-title">🔥 ACTIVE QUEST: The AI Companions</text>
      <text x="25" y="42" class="quest-desc">Forge Gemini AI builders &amp; interview agents</text>
      <text x="25" y="58" class="quest-desc">Sub-quests: chatbotmarco, ProofForge, NeuroSkill</text>
      <text x="25" y="78" class="quest-reward">XP REWARD: +2,500 XP | LOOT: AI Core</text>
      <text x="25" y="93" class="quest-status" fill="#ffe259">PROGRESS: [████████░░] 80%</text>
    </g>
    <!-- Quest 2 -->
    <g transform="translate(375, 0)">
      <rect x="0" y="0" width="345" height="105" rx="10" class="quest-card" />
      <path d="M 10 5 L 10 100" stroke="#ffe259" stroke-width="2" />
      <text x="25" y="22" class="quest-title">🟢 QUEST COMPLETE: The Polaroid Bazaar</text>
      <text x="25" y="42" class="quest-desc">Build customized Polaroid shop with mobile skins</text>
      <text x="25" y="58" class="quest-desc">Platform: Noira, checkout via WhatsApp pipeline</text>
      <text x="25" y="78" class="quest-reward">XP REWARD: +1,500 XP | LOOT: Polaroid Kit</text>
      <text x="25" y="93" class="quest-status" fill="#39ff14">STATUS: SUCCESSFUL [100%]</text>
    </g>

    <!-- Row 2 Quest Cards -->
    <!-- Quest 3 -->
    <g transform="translate(0, 120)">
      <rect x="0" y="0" width="345" height="105" rx="10" class="quest-card" />
      <path d="M 10 5 L 10 100" stroke="#ffe259" stroke-width="2" />
      <text x="25" y="22" class="quest-title">🟢 QUEST COMPLETE: Music Sanctuary</text>
      <text x="25" y="42" class="quest-desc">Craft modern web music controller with audio flows</text>
      <text x="25" y="58" class="quest-desc">Features: Playlists, sidebar navigate, transition animations</text>
      <text x="25" y="78" class="quest-reward">XP REWARD: +1,200 XP | LOOT: Focus Headset</text>
      <text x="25" y="93" class="quest-status" fill="#39ff14">STATUS: SUCCESSFUL [100%]</text>
    </g>
    <!-- Quest 4 -->
    <g transform="translate(375, 120)">
      <rect x="0" y="0" width="345" height="105" rx="10" class="quest-card" />
      <path d="M 10 5 L 10 100" stroke="#ffe259" stroke-width="2" />
      <text x="25" y="22" class="quest-title">🟢 QUEST COMPLETE: Transit &amp; Spirit</text>
      <text x="25" y="42" class="quest-desc">Deploy spiritual portal &amp; transport system mockup</text>
      <text x="25" y="58" class="quest-desc">Projects: Bajrang Baan, BusPro Fleet Route dashboard</text>
      <text x="25" y="78" class="quest-reward">XP REWARD: +1,800 XP | LOOT: Divine Blessing</text>
      <text x="25" y="93" class="quest-status" fill="#39ff14">STATUS: SUCCESSFUL [100%]</text>
    </g>
  </g>

  <!-- ==================== GUILD HALL / CO-OP SECTION ==================== -->
  <g transform="translate(40, 1095)">
    <text x="0" y="0" class="section-title">🤝 GUILD HALL (MULTIPLAYER PARTY)</text>
    <path d="M 0 8 L 720 8" stroke="#3e1f31" stroke-width="1.5" />
  </g>

  <g transform="translate(40, 1120)">
    <!-- Guild Card Info -->
    <rect x="0" y="0" width="720" height="90" rx="12" fill="#20111a" stroke="#ffccd5" stroke-width="1.5" />
    <text x="20" y="30" font-family="Georgia" font-size="14" fill="#ffffff">Join the Co-Op party! Always looking for guild companions.</text>
    <text x="20" y="50" font-family="Segoe UI" font-size="11" fill="#d4a3b8">Active Roles: Founder, Lead Product Builder, AI Integrator</text>
    <text x="20" y="68" font-family="Georgia" font-style="italic" font-size="11" fill="#ff8fa3">Motto: "Dream Big. Build Bigger."</text>
    
    <!-- Co-op Navigation Links (SVG anchors work in browser viewing) -->
    <!-- GitHub Link Button -->
    <g transform="translate(420, 25)">
      <a href="https://github.com/DAS-BABA" target="_blank">
        <rect x="0" y="0" width="130" height="35" rx="8" class="btn-bg" />
        <text x="65" y="22" class="btn-text">JOIN GUILD</text>
      </a>
    </g>
    <!-- Email Link Button -->
    <g transform="translate(565, 25)">
      <a href="mailto:saumilprajapati111@gmail.com" target="_blank">
        <rect x="0" y="0" width="130" height="35" rx="8" class="btn-bg" style="stroke: #d8bbff;" />
        <text x="65" y="22" class="btn-text" style="fill: #ffccd5;">SEND SCROLL</text>
      </a>
    </g>
  </g>
</svg>
